<?xml version="1.0" encoding="UTF-8"?>
<svg id="Ebene_1" data-name="Ebene 1" xmlns="http://www.w3.org/2000/svg" viewBox="0 0 32 30">
  <defs>
    <style>
      .cls-1 {
        fill: #fff;
      }

      .cls-2 {
        fill: #f5f5f0;
      }
    </style>
  </defs>
  <path class="cls-1" d="M5.56,2.19c-1.72.35-2.74,2.04-2.4,3.66s1.99,2.75,3.67,2.41,2.74-1.97,2.42-3.62-1.94-2.81-3.69-2.45ZM23.27,16.59c.22.66.29,1.31.34,2.03v9.32s5.36,0,5.36,0v-9.05c0-2.96-.18-6.79-3.36-8.09-1.13-.46-2.34-.59-3.56-.52-1.87.12-3.62,1.06-4.62,2.79l-.04-2.38h-5.15s0,17.25,0,17.25h5.37s0-8.87,0-8.87c.01-1.2.23-2.82,1.27-3.54,1.23-.85,3.74-.88,4.39,1.06ZM8.89,27.93V10.69s-5.37,0-5.37,0v17.25s5.37-.01,5.37-.01Z"/>
  <path class="cls-2" d="M23.27,16.59c-.64-1.94-3.16-1.92-4.39-1.06-1.04.72-1.26,2.34-1.27,3.54v8.88s-5.37,0-5.37,0V10.69s5.15,0,5.15,0l.04,2.38c1-1.73,2.75-2.67,4.62-2.79,1.21-.07,2.43.06,3.56.52,3.18,1.3,3.36,5.12,3.36,8.09v9.05s-5.35,0-5.35,0v-9.32c-.05-.72-.12-1.36-.34-2.03Z"/>
  <polygon class="cls-2" points="8.89 27.93 3.52 27.94 3.52 10.69 8.89 10.69 8.89 27.93"/>
  <path class="cls-2" d="M5.56,2.19c1.75-.36,3.35.77,3.69,2.45s-.76,3.28-2.42,3.62-3.32-.71-3.67-2.41.68-3.31,2.4-3.66Z"/>
</svg>