<?xml version="1.0" encoding="UTF-8"?>
<svg id="Ebene_1" data-name="Ebene 1" xmlns="http://www.w3.org/2000/svg" viewBox="0 0 32 30">
  <defs>
    <style>
      .cls-1 {
        fill: #f5f5f0;
      }
    </style>
  </defs>
  <path class="cls-1" d="M21.13,29.25h-10.24c-1.13,0-2.19-.13-3.28-.4-2.69-.67-4.73-2.69-5.42-5.38-.28-1.09-.41-2.15-.41-3.3v-10.44c0-1.15.15-2.21.44-3.29C2.92,3.84,4.88,1.88,7.47,1.18c1.11-.3,2.2-.44,3.37-.44h10.32c1.14,0,2.2.13,3.29.41,2.68.69,4.7,2.74,5.37,5.44.27,1.09.4,2.15.4,3.28v10.23c0,1.19-.14,2.3-.44,3.44-.7,2.63-2.7,4.61-5.33,5.29-1.08.28-2.13.42-3.31.42ZM20.3,26.69c1.16,0,2.18-.07,3.22-.28,2.02-.41,3.49-1.92,3.87-3.94.19-1.02.26-2.03.26-3.11v-8.72c0-1.1-.07-2.14-.28-3.19-.4-1.93-1.79-3.38-3.7-3.83-.92-.21-1.82-.3-2.78-.3h-9.8c-.99,0-1.92.09-2.86.33-1.78.44-3.12,1.78-3.55,3.57-.22.92-.32,1.82-.32,2.79v9.91c0,.96.09,1.87.3,2.79.44,1.92,1.89,3.31,3.81,3.71,1.04.21,2.08.28,3.18.28h8.65Z"/>
  <path class="cls-1" d="M15.2,7.7c4.09-.45,7.64,2.53,8.07,6.49.44,4.03-2.47,7.66-6.49,8.1s-7.58-2.44-8.06-6.43,2.35-7.72,6.47-8.17ZM15.3,10.29c-2.69.4-4.41,2.92-3.99,5.48s2.83,4.32,5.38,3.94,4.39-2.81,4-5.42-2.73-4.4-5.4-4Z"/>
  <path class="cls-1" d="M23.12,5.73c.96-.29,1.86.29,2.12,1.13.28.92-.25,1.87-1.11,2.14-.91.29-1.84-.21-2.13-1.05-.32-.9.14-1.93,1.12-2.22Z"/>
</svg>