<?xml version="1.0" encoding="UTF-8"?>
<svg id="Ebene_1" data-name="Ebene 1" xmlns="http://www.w3.org/2000/svg" viewBox="0 0 2500 1583">
  <defs>
    <style>
      .cls-1 {
        fill: #f5f5f0;
      }
    </style>
  </defs>
  <path class="cls-1" d="M1008.99,707.71s236.54-17.56,236.54-294.94S1052.01,0,806.88,0H.23v1550.14h806.64s492.43,15.55,492.43-457.53c0,0,21.47-384.9-290.31-384.9h0ZM748.82,275.52h58.06s109.65,0,109.65,161.29-64.48,184.65-137.63,184.65h-423.25v-345.93h393.16ZM784.08,1274.63h-428.43v-414.26h451.23s163.42-2.14,163.42,212.89c0,181.32-122.06,200-186.22,201.37h0ZM1956.04,394.4c-596.14,0-595.61,595.61-595.61,595.61,0,0-40.9,592.55,595.61,592.55,0,0,530.42,30.3,530.42-412.21h-272.79s9.1,166.64-248.53,166.64c0,0-272.83,18.28-272.83-269.69h803.25s87.89-672.91-539.52-672.91h0ZM1689.31,860.37s33.31-238.93,272.79-238.93,236.43,238.93,236.43,238.93h-509.22ZM2262.08,282.21h-639.55V91.32h639.55v190.89h0Z"/>
</svg>