<?xml version="1.0" encoding="UTF-8"?>
<svg id="Ebene_1" data-name="Ebene 1" xmlns="http://www.w3.org/2000/svg" viewBox="0 0 599.56 314.57">
  <defs>
    <style>
      .cls-1 {
        fill: #ff6b35;
      }

      .cls-2, .cls-3 {
        fill: #2c1810;
      }

      .cls-3 {
        stroke: #2c1810;
        stroke-miterlimit: 10;
      }
    </style>
  </defs>
  <circle class="cls-1" cx="60.52" cy="135.3" r="18.53"/>
  <g>
    <path class="cls-2" d="M147.62,90.09c18.43,0,30.02,10.2,30.02,26.43h-18.66c0-6.03-4.52-9.74-11.59-9.74-7.65,0-12.52,3.48-12.52,9.16,0,5.21,2.67,7.77,8.7,9.04l12.87,2.66c15.3,3.13,22.61,10.44,22.61,24,0,16.58-12.99,27.36-32.69,27.36s-31.53-10.32-31.53-26.43h18.67c0,6.26,4.64,9.74,12.98,9.74s13.79-3.36,13.79-8.81c0-4.75-2.2-7.19-7.88-8.35l-13.1-2.67c-15.3-3.13-23.19-11.82-23.19-25.85,0-15.53,13.1-26.55,31.53-26.55Z"/>
    <path class="cls-2" d="M184.82,91.71h67.47v17.39h-24.34v68.4h-18.78v-68.4h-24.35v-17.39Z"/>
    <path class="cls-2" d="M261.55,91.71h18.78v52.28c0,10.78,5.91,16.69,16.46,16.69s16.69-6.14,16.69-16.69v-52.28h18.78v53.56c0,20.4-13.91,33.62-35.47,33.62s-35.24-13.1-35.24-33.62v-53.56Z"/>
    <path class="cls-2" d="M341.44,177.5v-85.78h32.46c25.15,0,42.66,17.62,42.66,43.12s-17.04,42.66-41.5,42.66h-33.62ZM360.22,109.1v51.01h12.99c14.84,0,23.53-9.39,23.53-25.27s-9.16-25.74-24.69-25.74h-11.83Z"/>
    <path class="cls-2" d="M444.6,177.5h-18.78v-85.78h18.78v85.78Z"/>
    <path class="cls-2" d="M495.72,178.95c-24.81,0-41.85-18.08-41.85-44.28s17.16-44.4,41.96-44.4,42.08,18.08,42.08,44.28-17.27,44.4-42.2,44.4ZM495.95,108.35c-13.91,0-22.26,9.85-22.26,26.2s8.35,26.31,22.26,26.31,22.14-10.09,22.14-26.31-8.35-26.2-22.14-26.2Z"/>
    <g>
      <path class="cls-3" d="M114.81,240.3h2.45v1.14c0,5.05,2.7,8.27,7.59,8.27,5.15,0,7.6-3.33,7.6-8.27v-26.9h2.5v26.9c0,6.82-4.21,10.66-10.15,10.66s-9.99-4.27-9.99-10.66v-1.14Z"/>
      <path class="cls-3" d="M144.16,252.06v-36.94h21.69v2.29h-19.2v14.98h17.48v2.29h-17.48v15.09h19.25v2.29h-21.75Z"/>
      <path class="cls-3" d="M181.43,213.92c6.35,0,10.56,3.54,11.29,9.47h-2.6c-.52-4.58-3.64-7.18-8.69-7.18-5.72,0-9.52,3.02-9.52,7.65,0,3.54,2.13,5.88,6.35,6.97l6.55,1.66c5.57,1.41,8.53,4.74,8.53,9.47,0,6.19-4.79,10.14-12.17,10.14-6.92,0-11.6-3.59-12.17-9.36h2.65c.21,4.21,4.01,7.02,9.52,7.02,5.88,0,9.68-3.02,9.68-7.75,0-3.64-2.13-6.09-6.5-7.18l-6.4-1.61c-5.57-1.4-8.53-4.58-8.53-9.36,0-6.04,4.73-9.94,12.02-9.94Z"/>
      <path class="cls-3" d="M212.16,213.92c6.35,0,10.56,3.54,11.29,9.47h-2.6c-.52-4.58-3.64-7.18-8.69-7.18-5.72,0-9.52,3.02-9.52,7.65,0,3.54,2.13,5.88,6.35,6.97l6.55,1.66c5.57,1.41,8.53,4.74,8.53,9.47,0,6.19-4.79,10.14-12.17,10.14-6.92,0-11.6-3.59-12.17-9.36h2.65c.21,4.21,4.01,7.02,9.52,7.02,5.88,0,9.68-3.02,9.68-7.75,0-3.64-2.13-6.09-6.5-7.18l-6.4-1.61c-5.57-1.4-8.53-4.58-8.53-9.36,0-6.04,4.73-9.94,12.02-9.94Z"/>
      <path class="cls-3" d="M233.65,251.48h-2.5v-36.94h2.5v36.94Z"/>
      <path class="cls-3" d="M240.72,233.02c0-11.29,7.08-19.09,17.32-19.09,7.54,0,13.68,4.68,15.29,11.7h-2.76c-1.67-5.72-6.55-9.31-12.69-9.31-8.69,0-14.62,6.76-14.62,16.7s5.93,16.65,14.62,16.65c6.14,0,11.19-3.43,12.9-8.74h2.76c-1.77,6.66-8.12,11.13-15.71,11.13-10.09,0-17.11-7.8-17.11-19.04Z"/>
      <path class="cls-3" d="M275.43,251.48l13.68-36.94h3.69l13.84,36.94h-2.55l-3.9-10.35h-18.42l-3.85,10.35h-2.5ZM282.6,238.84h16.75l-8.12-21.64c-.1-.31-.26-.68-.31-.94-.05.21-.21.68-.31.94l-8.01,21.64Z"/>
      <path class="cls-3" d="M336.51,213.92c6.35,0,10.56,3.54,11.29,9.47h-2.6c-.52-4.58-3.64-7.18-8.69-7.18-5.72,0-9.52,3.02-9.52,7.65,0,3.54,2.13,5.88,6.35,6.97l6.55,1.66c5.57,1.41,8.53,4.74,8.53,9.47,0,6.19-4.79,10.14-12.17,10.14-6.92,0-11.6-3.59-12.17-9.36h2.65c.21,4.21,4.01,7.02,9.52,7.02,5.88,0,9.68-3.02,9.68-7.75,0-3.64-2.13-6.09-6.5-7.18l-6.4-1.61c-5.57-1.4-8.53-4.58-8.53-9.36,0-6.04,4.73-9.94,12.02-9.94Z"/>
      <path class="cls-3" d="M353.16,233.02c0-11.29,7.08-19.09,17.32-19.09,7.54,0,13.68,4.68,15.3,11.7h-2.76c-1.67-5.72-6.55-9.31-12.69-9.31-8.69,0-14.62,6.76-14.62,16.7s5.93,16.65,14.62,16.65c6.14,0,11.19-3.43,12.9-8.74h2.76c-1.77,6.66-8.12,11.13-15.71,11.13-10.09,0-17.11-7.8-17.11-19.04Z"/>
      <path class="cls-3" d="M392.8,251.48v-36.94h2.5v17.01h21.49v-17.01h2.5v36.94h-2.5v-17.64h-21.49v17.64h-2.5Z"/>
      <path class="cls-3" d="M428.5,251.48v-36.94h2.5l14.15,33.92,14.1-33.92h2.55v36.94h-2.5v-20.24c0-6.04.1-9.16.26-11.6l-13.16,31.84h-2.5l-13.16-31.68c.1,1.04.26,5.36.26,11.44v20.24h-2.5Z"/>
      <path class="cls-3" d="M473.4,251.48h-2.5v-36.94h2.5v36.94Z"/>
      <path class="cls-3" d="M482.61,251.48v-36.94h10.35c11.19,0,18.62,7.39,18.62,18.47s-7.44,18.47-18.62,18.47h-10.35ZM485.11,216.84v32.36h7.85c9.73,0,16.08-6.35,16.08-16.18s-6.24-16.18-16.08-16.18h-7.85Z"/>
      <path class="cls-3" d="M512.21,214.55h25.7v2.29h-11.6v34.65h-2.5v-34.65h-11.6v-2.29Z"/>
    </g>
  </g>
</svg>