<?xml version="1.0" encoding="UTF-8"?>
<svg id="Ebene_1" data-name="Ebene 1" xmlns="http://www.w3.org/2000/svg" viewBox="0 0 994.89 398.65">
  <defs>
    <style>
      .cls-1 {
        fill: #112150;
      }

      .cls-2 {
        fill: #e1e5ec;
      }
    </style>
  </defs>
  <g>
    <path class="cls-1" d="M314.4,83.39v86.63h-17.85v-86.63h17.85ZM353.08,83.39v13.98h-43.55v-13.98h43.55ZM348.91,120.39v13.92h-39.39v-13.92h39.39Z"/>
    <path class="cls-1" d="M382.28,83.39v86.63h-17.85v-86.63h17.85ZM422.5,83.39v13.98h-46.05v-13.98h46.05ZM416.55,118.67v13.56h-40.1v-13.56h40.1ZM422.56,156.1v13.92h-46.11v-13.92h46.11Z"/>
    <path class="cls-1" d="M452.95,83.39v86.63h-17.79v-86.63h17.79Z"/>
    <path class="cls-1" d="M538.12,83.39v86.63h-17.85l-34.81-58.07v58.07h-17.85v-86.63h17.85l34.87,58.13v-58.13h17.79Z"/>
    <path class="cls-1" d="M565.61,83.39l14.28,72.89-1.19,13.74h-11.54l-19.22-86.63h17.67ZM574.47,156.27l17.26-72.89h9.64l2.2,12.14-18.39,74.49h-10.35l-.36-13.74ZM606.78,83.39l17.37,73.18-.48,13.45h-10.35l-18.5-74.55,2.38-12.08h9.58ZM618.74,155.98l14.1-72.59h17.67l-19.16,86.63h-11.54l-1.07-14.04Z"/>
    <path class="cls-1" d="M678.06,83.39v86.63h-17.85v-86.63h17.85ZM718.29,83.39v13.98h-46.05v-13.98h46.05ZM712.33,118.67v13.56h-40.1v-13.56h40.1ZM718.34,156.1v13.92h-46.11v-13.92h46.11Z"/>
    <path class="cls-1" d="M729.76,83.39h32.31c6.62,0,12.33.99,17.11,2.97,4.78,1.98,8.46,4.92,11.04,8.81,2.58,3.89,3.87,8.67,3.87,14.34,0,4.64-.78,8.62-2.35,11.93-1.57,3.31-3.77,6.07-6.6,8.27-2.84,2.2-6.16,3.96-9.97,5.27l-5.65,2.97h-28.08l-.12-13.92h20.89c3.13,0,5.73-.56,7.79-1.67,2.06-1.11,3.62-2.66,4.67-4.64,1.05-1.98,1.58-4.28,1.58-6.9,0-2.78-.52-5.18-1.55-7.2-1.03-2.02-2.6-3.57-4.7-4.64-2.1-1.07-4.74-1.61-7.91-1.61h-14.46v72.65h-17.85v-86.63ZM778.19,170.02l-19.75-38.61,18.86-.12,19.99,37.9v.83h-19.1Z"/>
    <path class="cls-1" d="M824.67,83.39v86.63h-17.85v-86.63h17.85ZM876.55,83.39l-34.33,42.78-19.81,21.3-3.21-16.9,13.39-18.33,22.07-28.86h21.9ZM856.26,170.02l-25.53-40.04,13.21-11.07,33.44,51.11h-21.12Z"/>
    <path class="cls-1" d="M348.85,294.88c0-2.38-.4-4.49-1.19-6.34-.79-1.84-2.09-3.51-3.9-5-1.81-1.49-4.22-2.88-7.26-4.16s-6.81-2.57-11.33-3.84c-4.32-1.23-8.23-2.58-11.72-4.05-3.49-1.47-6.48-3.15-8.96-5.06-2.48-1.9-4.37-4.14-5.68-6.69-1.31-2.56-1.96-5.54-1.96-8.95s.71-6.37,2.14-9.1c1.43-2.74,3.44-5.1,6.04-7.08,2.6-1.98,5.67-3.51,9.22-4.58,3.55-1.07,7.45-1.61,11.69-1.61,6.07,0,11.32,1.15,15.77,3.45,4.44,2.3,7.87,5.4,10.29,9.31,2.42,3.91,3.63,8.28,3.63,13.12h-7.32c0-3.77-.88-7.13-2.65-10.09-1.76-2.95-4.3-5.27-7.62-6.96-3.31-1.69-7.35-2.53-12.11-2.53s-8.76.72-11.99,2.17c-3.23,1.45-5.66,3.37-7.29,5.77-1.63,2.4-2.44,5.07-2.44,8,0,2.06.4,3.96,1.19,5.68.79,1.73,2.08,3.33,3.87,4.82,1.79,1.49,4.17,2.87,7.17,4.14,3,1.27,6.67,2.5,11.04,3.69,4.6,1.23,8.68,2.62,12.23,4.17,3.55,1.55,6.55,3.33,9.01,5.35s4.32,4.36,5.59,7.02c1.27,2.66,1.9,5.73,1.9,9.22s-.73,6.69-2.2,9.49c-1.47,2.8-3.54,5.18-6.22,7.14-2.68,1.96-5.83,3.46-9.46,4.49-3.63,1.03-7.61,1.55-11.93,1.55-3.85,0-7.68-.5-11.48-1.49-3.81-.99-7.29-2.54-10.44-4.64-3.15-2.1-5.67-4.79-7.56-8.06-1.89-3.27-2.83-7.21-2.83-11.81h7.32c0,3.65.73,6.73,2.2,9.25s3.42,4.54,5.86,6.07c2.44,1.53,5.14,2.64,8.09,3.33,2.95.7,5.9,1.04,8.84,1.04,4.56,0,8.52-.67,11.87-2.02,3.35-1.35,5.95-3.24,7.79-5.68s2.77-5.28,2.77-8.54Z"/>
    <path class="cls-1" d="M436.08,268.29v9.22c0,6.07-.79,11.56-2.38,16.48-1.59,4.92-3.85,9.12-6.78,12.61-2.94,3.49-6.48,6.17-10.62,8.03-4.14,1.86-8.78,2.8-13.89,2.8s-9.63-.93-13.77-2.8c-4.15-1.86-7.72-4.54-10.71-8.03-3-3.49-5.31-7.69-6.93-12.61-1.63-4.92-2.44-10.41-2.44-16.48v-9.22c0-6.07.8-11.55,2.41-16.45,1.61-4.9,3.9-9.09,6.87-12.58,2.98-3.49,6.53-6.17,10.68-8.03,4.14-1.86,8.74-2.8,13.77-2.8s9.75.93,13.89,2.8c4.14,1.86,7.71,4.54,10.68,8.03,2.97,3.49,5.26,7.68,6.84,12.58,1.59,4.9,2.38,10.38,2.38,16.45ZM428.76,277.51v-9.34c0-5.12-.59-9.72-1.76-13.8-1.17-4.09-2.9-7.58-5.18-10.47-2.28-2.89-5.07-5.12-8.36-6.66s-7.02-2.32-11.19-2.32-7.81.77-11.07,2.32c-3.25,1.55-6.02,3.77-8.3,6.66-2.28,2.9-4.03,6.39-5.24,10.47-1.21,4.08-1.82,8.69-1.82,13.8v9.34c0,5.16.62,9.8,1.84,13.92s3,7.64,5.3,10.53c2.3,2.89,5.08,5.12,8.33,6.66,3.25,1.55,6.94,2.32,11.07,2.32s7.93-.77,11.19-2.32c3.25-1.55,6.01-3.77,8.27-6.66,2.26-2.9,3.98-6.41,5.15-10.53,1.17-4.13,1.76-8.77,1.76-13.92Z"/>
    <path class="cls-1" d="M459.9,229.61v86.63h-7.32v-86.63h7.32ZM506.25,229.61v6.31h-48.73v-6.31h48.73ZM500.24,269.42v6.37h-42.72v-6.37h42.72Z"/>
    <path class="cls-1" d="M583.04,229.61v6.31h-66.58v-6.31h66.58ZM553.35,229.61v86.63h-7.26v-86.63h7.26Z"/>
    <path class="cls-1" d="M598.09,229.61l15.83,63.13,4.76,23.5h-5.89l-22.19-86.63h7.5ZM619.93,293.34l18.8-63.72h5.89l-4.7,18.92-20.11,67.71h-5.65l5.77-22.91ZM645.34,229.61l18.5,63.72,5.71,22.91h-5.65l-19.64-67.71-4.82-18.92h5.89ZM669.97,292.68l15.59-63.07h7.5l-22.13,86.63h-5.89l4.94-23.56Z"/>
    <path class="cls-1" d="M730.1,234.79l-29.99,81.46h-7.62l32.72-86.63h5.35l-.48,5.18ZM752.06,285.66v6.31h-46.05v-6.31h46.05ZM757.35,316.24l-29.99-81.46-.42-5.18h5.3l32.78,86.63h-7.67Z"/>
    <path class="cls-1" d="M780.64,229.61h28.14c6.03,0,11.23.97,15.62,2.92s7.77,4.81,10.17,8.6c2.4,3.79,3.6,8.44,3.6,13.95,0,4.09-.85,7.79-2.56,11.13-1.71,3.33-4.08,6.12-7.11,8.36-3.03,2.24-6.53,3.78-10.5,4.61l-2.5.95h-30.05l-.12-6.25h25.11c4.52,0,8.29-.88,11.3-2.65,3.01-1.76,5.28-4.08,6.81-6.93,1.53-2.86,2.29-5.93,2.29-9.22,0-3.93-.84-7.33-2.53-10.2-1.69-2.88-4.17-5.09-7.47-6.63-3.29-1.55-7.32-2.32-12.08-2.32h-20.77v80.32h-7.38v-86.63ZM834.13,316.24l-22.43-38.73,7.85-.12,22.37,38.08v.77h-7.79Z"/>
    <path class="cls-1" d="M865.55,229.61v86.63h-7.32v-86.63h7.32ZM911.78,229.61v6.31h-48.43v-6.31h48.43ZM906.01,268.47v6.25h-42.66v-6.25h42.66ZM912.07,309.94v6.31h-48.73v-6.31h48.73Z"/>
  </g>
  <polygon class="cls-1" points="82.53 199.98 118.86 156.35 134.75 170.08 179.73 111.71 237.17 170.08 237.17 197.4 237.17 83.39 82.53 83.39 82.53 199.98"/>
  <polygon class="cls-2" points="950.86 360.22 880.11 360.22 880.11 352.92 943.55 352.92 943.55 283.35 950.86 283.35 950.86 360.22"/>
  <polygon class="cls-2" points="179.73 111.71 174.65 139.23 194.71 168.81 190.34 199.98 237.17 229.67 237.17 170.08 179.73 111.71"/>
</svg>